<svg version="1.1" id="Layer_1" xmlns="http://www.w3.org/2000/svg" xmlns:xlink="http://www.w3.org/1999/xlink" x="0px" y="0px"
	 width="100%" viewBox="0 0 1024 992" enable-background="new 0 0 1024 992" xml:space="preserve">
<path fill="#000000" opacity="1.000000" stroke="none" 
	d="
M296.564117,856.539124 
	C277.518616,847.190674 259.143341,837.412231 241.874298,825.677734 
	C241.192215,825.214172 240.549515,824.640137 240.700668,823.417725 
	C243.788528,822.439331 246.501480,825.770081 250.015137,824.290771 
	C248.907227,818.638428 252.500488,819.745728 255.654922,820.917542 
	C261.327789,823.024902 267.443085,824.405396 271.604645,828.912781 
	C271.367432,831.049316 269.437347,830.924316 268.845123,832.148560 
	C268.808289,833.601501 269.950775,834.158447 270.932281,834.677673 
	C279.474457,839.196899 288.008453,843.756531 297.063812,847.185242 
	C317.356415,854.868713 335.870636,866.397278 356.059875,874.315430 
	C369.954956,879.764954 383.962585,880.003662 398.156281,875.952576 
	C400.484955,875.287903 403.602295,874.662842 403.462372,871.558777 
	C403.328583,868.590820 400.294464,868.045044 397.912781,867.335083 
	C353.231171,854.016663 311.228088,834.913635 272.376465,809.058472 
	C250.686447,794.624207 230.459930,778.343445 211.754776,760.196838 
	C209.608612,758.114624 207.697647,755.787048 205.728073,753.529175 
	C205.452484,753.213257 205.467560,752.643738 205.278076,751.926575 
	C208.557129,751.226624 210.316284,753.536560 212.266800,755.087769 
	C229.353821,768.676880 246.492188,782.202393 264.749420,794.209656 
	C278.945038,803.545654 293.381348,812.494507 309.256989,819.910034 
	C310.118927,815.836914 312.369476,817.149780 314.767487,818.131714 
	C332.788696,825.510986 350.848969,832.794861 368.873810,840.165344 
	C376.978210,843.479309 385.592682,844.197327 394.171356,845.290588 
	C378.778564,840.235291 363.539612,834.827820 348.577972,828.625183 
	C320.954956,817.173706 294.848511,802.705750 269.039490,787.813232 
	C258.465424,781.711609 249.844040,772.411255 240.820129,764.000793 
	C198.933594,724.961243 164.597961,680.327148 140.382751,628.222717 
	C124.264221,593.540100 113.706558,557.231384 108.907753,519.277161 
	C108.282310,514.330505 108.037994,509.334015 107.673416,504.356476 
	C107.328377,499.645844 110.649887,498.205017 114.284416,497.901428 
	C118.143456,497.579132 120.710892,499.157166 121.352333,503.727203 
	C128.794083,556.746338 145.633377,606.558167 172.370102,653.020996 
	C192.420059,687.863525 217.520157,718.459167 248.143509,744.508850 
	C250.133957,746.202026 252.256210,747.740112 254.636749,749.035400 
	C218.762253,717.996460 189.366852,681.750000 166.888779,640.051575 
	C144.438141,598.403992 131.306015,553.857117 126.027756,505.808167 
	C130.528046,508.339539 132.702759,511.129700 133.400482,515.066223 
	C137.004852,535.401428 141.452896,555.523376 148.214172,575.083984 
	C154.321335,592.752258 162.109650,609.621277 171.966003,626.337952 
	C172.735397,623.745850 171.401627,622.385864 170.681320,621.009705 
	C165.113342,610.371338 158.819473,599.789612 156.161301,588.177795 
	C151.312988,566.998535 141.599014,547.273132 138.298569,525.706482 
	C138.100662,524.413269 137.435043,523.154297 138.176468,521.839355 
	C139.449936,521.247986 140.014252,522.224609 140.563614,522.984985 
	C148.166443,533.508301 155.369278,544.067505 159.704559,556.659058 
	C172.821594,594.756592 189.659821,631.119873 212.762451,664.356140 
	C233.273239,693.863770 257.790802,719.472900 286.061737,741.694702 
	C308.131775,759.042358 330.920654,775.151733 355.971802,787.922974 
	C385.369293,802.909973 416.195526,813.847839 448.581451,820.192200 
	C477.109985,825.780884 505.971924,828.252380 534.987732,826.530273 
	C607.021729,822.254883 672.086182,798.927551 726.654907,751.087341 
	C772.612488,710.796448 809.857178,663.388794 833.175171,606.167236 
	C847.558044,570.872192 854.930481,534.227661 852.557495,495.969543 
	C852.169312,489.711060 851.729553,483.352051 849.364624,475.881012 
	C848.588745,485.822815 847.349365,494.263794 847.640442,503.018555 
	C848.177917,519.182495 846.487793,535.309326 842.928528,551.097229 
	C837.405334,575.596619 831.856995,600.135437 823.017029,623.709778 
	C816.477417,641.149475 806.843933,656.884033 795.029114,671.315613 
	C771.446106,700.121826 746.410767,727.617310 717.510559,751.126770 
	C675.238342,785.514038 626.588928,806.544556 572.879883,814.939880 
	C477.317932,829.877380 390.455505,807.577454 311.844971,751.810181 
	C310.549255,750.890930 308.808655,750.298706 308.442719,747.990356 
	C310.823395,748.161682 312.475983,749.564270 314.203949,750.657959 
	C351.861664,774.492004 393.000488,789.256653 436.584076,797.636597 
	C462.190826,802.560059 488.073700,804.442810 514.090149,803.494751 
	C545.340454,802.356018 575.829834,796.576355 605.869324,787.843750 
	C652.631958,774.249756 694.931213,752.333252 732.012146,720.797668 
	C750.788025,704.829651 765.708557,685.271606 779.464966,664.942505 
	C803.759277,629.040771 821.850342,590.279297 831.980530,547.988770 
	C834.630859,536.924377 834.803650,525.561096 835.650024,514.293335 
	C837.058228,495.546875 837.500671,476.692078 839.785645,458.059021 
	C841.507263,444.020233 839.377075,430.514648 837.232727,416.980072 
	C831.315857,379.634216 819.087158,344.329315 800.449341,311.420349 
	C765.445251,249.613220 715.797913,203.570068 650.986389,174.183762 
	C638.465393,168.506607 624.690430,167.031555 611.573914,163.327118 
	C596.183899,158.980606 580.620056,155.167114 564.699097,153.809677 
	C552.118896,152.737106 539.405945,152.928299 526.755432,153.022385 
	C459.959015,153.519135 400.964233,175.783157 348.782349,217.031921 
	C336.617676,226.647858 324.550049,236.367874 313.576569,247.336548 
	C303.726379,257.182404 294.232941,267.290802 286.567200,279.100220 
	C277.042023,293.774170 265.761322,307.165375 254.361191,320.436646 
	C247.831543,328.038055 242.576691,336.571198 237.626648,345.269440 
	C234.907562,350.047394 232.899704,354.953644 231.920639,360.557709 
	C229.122375,376.574677 220.389740,388.771240 205.980545,396.513702 
	C198.131393,400.731354 189.398712,400.010376 181.017502,399.214478 
	C170.163422,398.183777 159.623093,395.371429 151.010208,388.126617 
	C137.131607,376.452484 131.718430,361.653748 134.587982,343.594147 
	C137.443924,325.620209 145.911133,309.896515 153.927811,294.046906 
	C173.701416,254.952850 196.810379,218.032059 226.400681,185.450134 
	C264.717834,143.259079 309.319489,109.534508 360.681763,84.672272 
	C393.022064,69.017738 426.864594,58.447304 462.334991,53.096191 
	C478.639221,50.636509 495.281647,47.782318 511.502625,50.227364 
	C520.553406,51.591633 529.508179,52.031876 538.519104,52.754383 
	C547.977539,53.512783 557.470276,53.928303 566.900330,54.939209 
	C593.041077,57.741512 619.101135,61.254124 644.619385,67.724480 
	C721.484680,87.214272 787.104004,125.642235 840.002808,185.022141 
	C886.887939,237.651474 918.185547,298.627289 935.781433,366.708069 
	C942.699890,393.476379 946.807251,420.692932 948.527161,448.359833 
	C950.121948,474.013672 950.393188,499.635376 948.093567,525.166077 
	C944.563660,564.356201 935.558716,602.336182 919.823914,638.549744 
	C912.786011,654.747437 908.096130,671.842041 900.518555,687.848267 
	C886.939514,716.531311 869.310364,742.463257 848.458679,766.293762 
	C825.585388,792.434814 799.043579,814.231384 770.255859,833.553406 
	C761.471741,839.449219 754.081055,847.408203 744.294434,851.962097 
	C741.613037,853.209839 739.392639,855.924133 735.699707,854.005005 
	C734.839966,853.558228 732.788147,855.219788 731.371338,856.057495 
	C689.286377,880.938171 644.267395,898.332764 596.525818,908.672058 
	C569.791138,914.461914 542.743225,917.545044 515.364258,918.497131 
	C462.052643,920.351013 410.065308,913.090393 359.416718,896.649719 
	C324.170807,885.208862 291.746704,867.823608 260.796814,847.611633 
	C259.775421,846.944641 258.353394,846.452820 258.340668,843.849609 
	C294.453796,864.088318 331.626434,880.612305 371.586365,890.282166 
	C346.480225,879.528381 321.786560,867.902222 296.564117,856.539124 
M918.447266,341.954773 
	C916.868713,337.219757 915.263184,332.493561 913.715698,327.748383 
	C900.193604,286.283752 880.463684,248.290085 851.383240,215.436478 
	C839.304321,201.790375 826.347534,189.156189 811.495239,178.541092 
	C805.781128,174.457138 799.793213,170.858398 793.053589,168.717422 
	C791.277222,168.153122 789.249451,167.838593 788.516968,170.279388 
	C787.922363,172.260925 789.577332,172.856247 790.972046,173.410034 
	C806.506897,179.578461 818.869812,190.280548 830.403687,201.858383 
	C861.327393,232.900162 883.140686,269.832458 899.434448,310.255127 
	C917.391968,354.805237 925.129150,401.605865 930.357605,448.991760 
	C931.137878,456.063080 931.789185,463.244690 934.590149,469.928833 
	C935.212585,471.414185 935.988525,473.294220 938.063965,472.931122 
	C940.044678,472.584625 941.035950,470.881256 941.472473,469.025482 
	C941.695374,468.077850 941.632874,467.031982 941.538391,466.045959 
	C940.983887,460.257263 940.325012,454.478241 939.804993,448.686646 
	C936.565369,412.605927 929.512634,377.288788 918.447266,341.954773 
M699.622986,831.551758 
	C700.296875,831.082275 701.609009,830.306885 701.551880,830.187744 
	C699.759460,826.447144 703.138672,825.937500 705.033081,824.644958 
	C706.676453,823.523621 708.539978,822.731445 710.252991,821.704956 
	C733.829651,807.575012 757.652161,793.721558 776.814453,773.564453 
	C784.592651,765.382507 791.423706,756.295532 801.082092,750.059265 
	C802.161194,749.362488 802.911438,748.139465 803.773254,747.125671 
	C818.732727,729.527405 830.950317,710.102966 841.831482,689.800964 
	C845.902710,682.204834 849.925354,674.573364 852.841003,666.413147 
	C847.970886,673.383606 842.996094,680.223083 838.930054,687.695068 
	C827.083618,709.464783 812.295471,729.126404 795.482727,747.287231 
	C767.152832,777.888855 734.084778,802.338013 697.842957,822.736328 
	C668.292603,839.368408 637.068298,851.174622 603.714172,857.656250 
	C575.719055,863.096436 547.378418,865.326782 519.101562,868.284485 
	C512.928589,868.930176 506.666504,869.103149 500.671112,871.175171 
	C520.334412,872.911377 539.927734,875.098877 559.675842,874.583801 
	C560.333191,874.566650 560.989868,874.387085 561.640198,874.251343 
	C604.602234,865.284912 646.695129,853.589050 686.438293,834.511841 
	C687.790588,833.862610 689.138306,832.921570 691.672791,834.026672 
	C687.559387,836.273560 684.152832,838.134338 680.746277,839.995056 
	C680.890015,840.240051 681.033752,840.485107 681.177490,840.730103 
	C687.127380,837.764038 693.077332,834.798035 699.622986,831.551758 
M716.407898,184.169220 
	C707.943726,179.176804 699.344543,174.395401 691.072021,169.103287 
	C686.913513,166.443008 682.912415,164.529953 677.612122,165.828812 
	C705.367310,177.906830 730.368164,194.083145 753.781372,212.628189 
	C770.645325,225.985703 785.587158,241.524902 800.472961,257.043884 
	C814.971436,272.159241 827.065918,289.028259 837.341125,307.270935 
	C848.415955,326.933380 856.552979,347.904541 865.232727,368.642273 
	C867.713135,374.568359 870.328125,380.438049 872.881409,386.333588 
	C868.602295,370.841553 863.985718,355.529968 857.776062,340.792114 
	C844.731934,309.833405 830.583313,279.531097 806.174500,255.403336 
	C801.680664,250.961334 797.669434,246.029892 793.454834,241.307053 
	C781.692078,228.125931 768.370605,216.720581 753.896973,206.286972 
	C754.236511,208.258713 756.788574,209.037537 755.524963,212.159241 
	C744.210693,200.410172 730.971375,191.972473 716.407898,184.169220 
M744.630920,722.117737 
	C764.764771,704.266785 780.174622,682.538086 795.078064,660.421021 
	C799.562561,653.765869 803.865417,646.953186 807.793213,638.825745 
	C767.326904,696.360535 718.804749,743.617493 658.499878,777.046692 
	C676.259949,771.769104 720.198730,743.940430 744.630920,722.117737 
M826.678284,600.232788 
	C838.817261,568.470642 849.230957,491.349304 843.715393,476.883942 
	C838.673645,526.062378 833.711365,575.941345 815.778809,623.950012 
	C820.167908,616.307983 823.192749,608.585938 826.678284,600.232788 
M902.352112,658.771240 
	C896.959900,670.398132 891.978943,682.187256 887.029053,695.553772 
	C901.047180,683.298645 938.194336,587.381042 937.135376,567.602234 
	C928.042664,599.072937 915.976196,628.818604 902.352112,658.771240 
M543.575928,853.008423 
	C548.424072,851.865662 553.280579,850.756775 558.118042,849.570496 
	C562.721436,848.441650 567.304993,847.232056 571.897278,846.058044 
	C531.941895,854.526245 491.548798,855.671204 450.974670,854.606689 
	C481.687866,860.346741 512.275146,859.799072 543.575928,853.008423 
M941.209045,416.252563 
	C944.577759,454.728455 943.972229,493.281799 943.445557,531.833679 
	C949.919800,491.997742 948.437317,452.315674 941.448242,412.332611 
	C940.398865,413.675690 941.227844,414.607117 941.209045,416.252563 
M587.728455,138.660339 
	C611.286926,141.438293 633.609863,149.086197 656.096069,156.135605 
	C641.888977,149.559525 627.575684,143.648956 612.021851,140.699661 
	C590.100342,136.542923 568.296143,132.144730 545.802979,133.341919 
	C541.537476,133.568924 537.517761,134.424835 533.629028,136.105911 
	C551.463867,135.525711 569.181763,136.184052 587.728455,138.660339 
M567.061340,906.885864 
	C568.082642,906.481506 569.442261,907.048035 570.606140,905.157410 
	C539.645325,910.596741 508.817902,910.375916 478.039581,910.969727 
	C492.210907,915.980286 542.061462,913.554443 567.061340,906.885864 
M864.324158,730.833374 
	C842.766907,759.368347 817.210266,784.287048 792.422302,809.900818 
	C822.275879,785.650757 847.498169,757.231445 868.721313,725.224976 
	C867.398499,726.908936 866.075684,728.592957 864.324158,730.833374 
M526.546204,902.256409 
	C507.419342,903.795837 488.233429,903.137207 469.075348,903.461304 
	C495.116486,906.520935 521.084290,907.177551 546.836304,901.104858 
	C540.399353,901.477478 533.962341,901.850037 526.546204,902.256409 
M764.680298,731.209778 
	C756.339844,739.808533 747.458679,747.812256 738.363586,755.607727 
	C729.328796,763.351501 719.625671,770.271729 710.559937,777.970825 
	C732.518555,767.540466 760.186646,741.089661 769.807007,726.238220 
	C768.261108,727.731140 766.715210,729.224060 764.680298,731.209778 
M665.468323,807.080566 
	C654.502075,812.665222 643.202026,817.516663 631.795349,822.133850 
	C650.407471,818.218994 677.324890,805.389099 683.385132,797.828308 
	C677.632507,800.796692 671.879822,803.765076 665.468323,807.080566 
M608.310486,832.972656 
	C611.944153,831.194946 615.577759,829.417175 619.211426,827.639465 
	C619.038513,827.270386 618.865662,826.901306 618.692749,826.532227 
	C605.243103,830.579529 592.072754,835.596985 578.412720,839.081055 
	C588.128906,837.130554 597.845093,835.180054 608.310486,832.972656 
M360.330597,879.735168 
	C361.588715,879.781921 362.740723,881.340820 364.559418,879.724670 
	C360.092834,878.595032 355.995453,877.558777 351.898041,876.522583 
	C351.833893,876.738708 351.769714,876.954895 351.705536,877.171021 
	C354.345886,877.963440 356.986206,878.755859 360.330597,879.735168 
z"/>
<path fill="#000000" opacity="1.000000" stroke="none" 
	d="
M514.978638,473.935120 
	C502.786102,426.896271 464.818176,392.930298 417.423096,386.127258 
	C412.603424,385.435425 407.805756,385.459839 402.999237,385.129395 
	C399.811951,384.910278 396.771240,384.163849 396.781616,380.174622 
	C396.792419,376.030060 399.846924,375.741394 403.098297,375.642517 
	C459.508026,373.927368 506.022888,334.496246 516.412903,279.453827 
	C517.581360,273.263641 517.977112,266.916382 518.516113,260.623505 
	C518.764709,257.720581 519.211243,255.087234 522.681641,254.907104 
	C526.334106,254.717514 527.625244,257.343964 527.774658,260.430115 
	C528.323792,271.773163 529.839783,282.897034 533.270874,293.803040 
	C547.493591,339.011566 588.463623,371.524017 635.873901,374.992889 
	C638.198914,375.162994 640.513916,375.493500 642.840576,375.611847 
	C645.940369,375.769501 648.116272,377.117249 648.112061,380.358307 
	C648.107849,383.658173 645.632751,385.051666 642.745361,385.106842 
	C635.900818,385.237671 629.161926,386.004700 622.425354,387.220734 
	C574.945862,395.791473 535.735291,436.489777 529.209778,484.172089 
	C528.443420,489.771667 527.914001,495.409119 527.460999,501.043976 
	C527.221741,504.020294 526.508545,506.485352 523.006775,506.443542 
	C519.557434,506.402435 518.738831,503.990601 518.596741,500.984497 
	C518.172119,492.007019 517.309204,483.077759 514.978638,473.935120 
z"/>
<path fill="#000000" opacity="1.000000" stroke="none" 
	d="
M311.917999,633.153320 
	C309.910767,628.771851 312.511017,627.745667 315.658539,627.403564 
	C322.267303,626.685181 328.896484,626.406372 335.426575,624.811462 
	C370.529724,616.237610 397.595764,586.563538 402.529022,550.901306 
	C403.006836,547.447144 403.087250,543.933960 403.265350,540.443726 
	C403.388275,538.035095 404.077881,536.022827 406.839478,535.933716 
	C409.619141,535.843872 410.538391,537.963928 410.757111,540.238770 
	C411.377106,546.687317 411.651978,553.136475 413.242859,559.500671 
	C422.812897,597.784302 455.233521,624.686584 494.735413,626.920410 
	C495.567108,626.967407 496.400604,627.001465 497.228912,627.085022 
	C499.732056,627.337463 502.066345,628.108398 501.998810,631.091553 
	C501.932404,634.020935 499.573486,634.980164 497.097015,635.004456 
	C489.211395,635.082031 481.531219,636.324768 473.983154,638.546692 
	C439.305573,648.754883 414.021912,679.934814 411.193909,715.967468 
	C411.011719,718.289001 410.605133,720.592529 410.407166,722.913330 
	C410.215729,725.157471 409.404297,726.975891 406.905121,726.894958 
	C404.528320,726.817932 403.480408,724.965942 403.226898,722.829834 
	C402.619995,717.715088 402.760376,712.563660 401.836945,707.434326 
	C394.449341,666.399109 358.532867,636.507385 319.360138,635.026184 
	C316.900391,634.933167 314.310822,635.185242 311.917999,633.153320 
z"/>
<path fill="#000000" opacity="1.000000" stroke="none" 
	d="
M677.443481,604.442993 
	C673.054504,613.389282 670.332764,622.378540 670.153870,632.062622 
	C670.109253,634.479736 670.272522,637.749512 666.728394,637.574463 
	C663.654480,637.422607 663.841248,634.410461 663.787964,632.093140 
	C663.036011,599.390381 635.649231,569.706238 599.789246,568.306885 
	C597.454163,568.215759 594.633484,568.401978 594.666565,565.072815 
	C594.698181,561.892212 597.722900,562.330505 599.636047,562.232605 
	C619.345520,561.224121 635.629517,553.192261 648.282471,538.183105 
	C657.761963,526.938232 663.234619,513.905090 663.745850,499.009491 
	C663.824524,496.717194 663.514526,493.711273 666.671204,493.544891 
	C670.209473,493.358337 670.132019,496.535248 670.209045,498.991638 
	C671.236816,531.760132 699.172607,560.469849 732.300415,561.892700 
	C733.130920,561.928345 733.965759,561.994202 734.785278,562.127563 
	C736.642700,562.429749 738.686401,562.825378 738.682434,565.182373 
	C738.678040,567.820557 736.589233,568.207520 734.453125,568.308228 
	C714.968994,569.226562 698.882202,577.157654 685.989746,591.737854 
	C682.655579,595.508484 680.002441,599.714233 677.443481,604.442993 
z"/>
<path fill="#000000" opacity="1.000000" stroke="none" 
	d="
M165.397827,511.699707 
	C167.035049,518.232544 170.219620,524.445312 169.861542,530.446777 
	C169.117188,542.922058 174.470078,553.524963 178.127838,564.609009 
	C182.244156,577.082581 187.727921,589.082275 193.209442,601.041077 
	C193.663132,602.030884 194.553162,603.000427 193.944138,604.306519 
	C176.824570,592.392883 148.755798,494.380676 154.831528,467.109192 
	C158.155319,469.920410 159.913620,473.255432 160.221802,477.305511 
	C161.093506,488.760498 162.874557,500.072357 165.397827,511.699707 
z"/>
</svg>